<mxfile host="65bd71144e" modified="2020-11-12T10:20:52.931Z" agent="5.0 (Windows NT 10.0; Win64; x64) AppleWebKit/537.36 (KHTML, like Gecko) Code/1.51.0 Chrome/83.0.4103.122 Electron/9.3.3 Safari/537.36" version="13.6.5" etag="wQIlHmaFMPYN5ih_8HK9">
    <diagram id="rmR9egDS_EThjiVzYpMR" name="第 1 页">
        <mxGraphModel dx="530" dy="730" grid="1" gridSize="10" guides="1" tooltips="1" connect="1" arrows="1" fold="1" page="1" pageScale="1" pageWidth="3300" pageHeight="4681" background="#EEEEEE" math="0" shadow="0">
            <root>
                <mxCell id="0"/>
                <mxCell id="1" parent="0"/>
                <mxCell id="5" value="" style="edgeStyle=orthogonalEdgeStyle;rounded=0;orthogonalLoop=1;jettySize=auto;html=1;labelBackgroundColor=#EEEEEE;strokeColor=#182E3E;fontColor=#1A1A1A;" edge="1" parent="1" source="3" target="4">
                    <mxGeometry relative="1" as="geometry"/>
                </mxCell>
                <mxCell id="3" value="&lt;b&gt;WFTaskFactory&lt;/b&gt;" style="rounded=1;whiteSpace=wrap;html=1;fillColor=#F5AB50;strokeColor=#909090;fontColor=#1A1A1A;" vertex="1" parent="1">
                    <mxGeometry x="90" y="620" width="130" height="60" as="geometry"/>
                </mxCell>
                <mxCell id="8" value="" style="edgeStyle=orthogonalEdgeStyle;rounded=0;orthogonalLoop=1;jettySize=auto;html=1;labelBackgroundColor=#EEEEEE;strokeColor=#182E3E;fontColor=#1A1A1A;" edge="1" parent="1" source="4" target="7">
                    <mxGeometry relative="1" as="geometry"/>
                </mxCell>
                <mxCell id="4" value="Create_http_task" style="whiteSpace=wrap;html=1;rounded=1;fillColor=#647687;strokeColor=#314354;fontColor=#ffffff;" vertex="1" parent="1">
                    <mxGeometry x="280" y="620" width="120" height="60" as="geometry"/>
                </mxCell>
                <mxCell id="67" value="" style="edgeStyle=orthogonalEdgeStyle;curved=0;rounded=1;sketch=0;orthogonalLoop=1;jettySize=auto;html=1;strokeColor=#182E3E;fontColor=#1A1A1A;" edge="1" parent="1" source="7" target="66">
                    <mxGeometry relative="1" as="geometry"/>
                </mxCell>
                <mxCell id="7" value="CompleHttpTask" style="whiteSpace=wrap;html=1;rounded=1;fillColor=#F5AB50;strokeColor=#909090;fontColor=#1A1A1A;" vertex="1" parent="1">
                    <mxGeometry x="480" y="620" width="120" height="60" as="geometry"/>
                </mxCell>
                <mxCell id="69" value="" style="edgeStyle=orthogonalEdgeStyle;curved=0;rounded=1;sketch=0;orthogonalLoop=1;jettySize=auto;html=1;strokeColor=#182E3E;fontColor=#1A1A1A;" edge="1" parent="1" source="66" target="68">
                    <mxGeometry relative="1" as="geometry"/>
                </mxCell>
                <mxCell id="80" value="" style="edgeStyle=orthogonalEdgeStyle;curved=0;rounded=1;sketch=0;orthogonalLoop=1;jettySize=auto;html=1;strokeColor=#182E3E;fontColor=#1A1A1A;" edge="1" parent="1" source="66" target="79">
                    <mxGeometry relative="1" as="geometry"/>
                </mxCell>
                <mxCell id="66" value="&lt;span&gt;WFComplexClientTask&lt;/span&gt;" style="whiteSpace=wrap;html=1;rounded=1;strokeColor=#6c8ebf;fillColor=#dae8fc;gradientColor=#7ea6e0;" vertex="1" parent="1">
                    <mxGeometry x="680" y="620" width="160" height="60" as="geometry"/>
                </mxCell>
                <mxCell id="71" value="" style="edgeStyle=orthogonalEdgeStyle;curved=0;rounded=1;sketch=0;orthogonalLoop=1;jettySize=auto;html=1;strokeColor=#182E3E;fontColor=#1A1A1A;" edge="1" parent="1" source="68" target="70">
                    <mxGeometry relative="1" as="geometry"/>
                </mxCell>
                <mxCell id="68" value="&lt;span&gt;WFClientTask&lt;/span&gt;" style="whiteSpace=wrap;html=1;rounded=1;fontColor=#ffffff;strokeColor=#006EAF;fillColor=#1ba1e2;" vertex="1" parent="1">
                    <mxGeometry x="940" y="620" width="120" height="60" as="geometry"/>
                </mxCell>
                <mxCell id="73" value="" style="edgeStyle=orthogonalEdgeStyle;curved=0;rounded=1;sketch=0;orthogonalLoop=1;jettySize=auto;html=1;strokeColor=#182E3E;fontColor=#1A1A1A;" edge="1" parent="1" source="70" target="72">
                    <mxGeometry relative="1" as="geometry"/>
                </mxCell>
                <mxCell id="70" value="&#10;&#10;&lt;span style=&quot;&quot;&gt;CommRequest&lt;/span&gt;&#10;&#10;" style="whiteSpace=wrap;html=1;rounded=1;fontColor=#ffffff;strokeColor=#6D1F00;fillColor=#a0522d;" vertex="1" parent="1">
                    <mxGeometry x="1140" y="620" width="120" height="60" as="geometry"/>
                </mxCell>
                <mxCell id="72" value="&#10;&#10;&lt;span style=&quot;&quot;&gt;CommRequest&lt;/span&gt;&#10;&#10;" style="whiteSpace=wrap;html=1;rounded=1;fontColor=#ffffff;strokeColor=#006EAF;fillColor=#1ba1e2;" vertex="1" parent="1">
                    <mxGeometry x="1340" y="620" width="120" height="60" as="geometry"/>
                </mxCell>
                <mxCell id="74" value="&lt;span&gt; SubTask&lt;/span&gt;" style="whiteSpace=wrap;html=1;rounded=1;fontColor=#ffffff;strokeColor=#BD7000;fillColor=#f0a30a;" vertex="1" parent="1">
                    <mxGeometry x="1530" y="560" width="110" height="60" as="geometry"/>
                </mxCell>
                <mxCell id="76" value="&lt;span&gt; CommSession&lt;/span&gt;" style="whiteSpace=wrap;html=1;rounded=1;fontColor=#ffffff;strokeColor=#432D57;fillColor=#76608a;" vertex="1" parent="1">
                    <mxGeometry x="1530" y="670" width="120" height="60" as="geometry"/>
                </mxCell>
                <mxCell id="77" value="" style="curved=1;endArrow=classic;html=1;strokeColor=#182E3E;fontColor=#1A1A1A;entryX=0;entryY=0.5;entryDx=0;entryDy=0;" edge="1" parent="1" target="74">
                    <mxGeometry width="50" height="50" relative="1" as="geometry">
                        <mxPoint x="1460" y="650" as="sourcePoint"/>
                        <mxPoint x="1510" y="600" as="targetPoint"/>
                        <Array as="points">
                            <mxPoint x="1510" y="650"/>
                            <mxPoint x="1460" y="600"/>
                        </Array>
                    </mxGeometry>
                </mxCell>
                <mxCell id="78" value="" style="curved=1;endArrow=classic;html=1;strokeColor=#182E3E;fontColor=#1A1A1A;entryX=-0.029;entryY=0.629;entryDx=0;entryDy=0;entryPerimeter=0;" edge="1" parent="1" target="76">
                    <mxGeometry width="50" height="50" relative="1" as="geometry">
                        <mxPoint x="1460" y="650" as="sourcePoint"/>
                        <mxPoint x="1470" y="740" as="targetPoint"/>
                        <Array as="points">
                            <mxPoint x="1510" y="660"/>
                            <mxPoint x="1480" y="708"/>
                        </Array>
                    </mxGeometry>
                </mxCell>
                <mxCell id="79" value="WFGlobal::get_scheduler()" style="whiteSpace=wrap;html=1;rounded=1;fillColor=#a20025;strokeColor=#6F0000;fontColor=#ffffff;" vertex="1" parent="1">
                    <mxGeometry x="670" y="760" width="180" height="60" as="geometry"/>
                </mxCell>
            </root>
        </mxGraphModel>
    </diagram>
</mxfile>